<svg width="571" height="638" viewBox="0 0 571 638" fill="none" xmlns="http://www.w3.org/2000/svg">
<path d="M343.015 372.774C293.097 432.264 241.283 480.376 197.951 510.096C176.26 524.973 156.889 535.108 141.075 539.837C125.077 544.622 113.836 543.574 107.122 537.941C100.408 532.307 97.4237 521.418 99.3579 504.832C101.27 488.438 107.886 467.6 118.771 443.656C140.515 395.822 178.898 336.44 228.816 276.95C278.734 217.46 330.548 169.349 373.881 139.628C395.571 124.751 414.942 114.617 430.756 109.887C446.754 105.103 457.995 106.15 464.709 111.784C471.423 117.418 474.407 128.306 472.473 144.892C470.561 161.287 463.945 182.124 453.06 206.068C431.316 253.903 392.933 313.284 343.015 372.774Z" stroke="#E535AB" stroke-width="8"/>
<path d="M338.581 271.456C376.799 317.002 404.586 363.725 418.69 402.339C425.748 421.662 429.301 438.744 429.154 452.52C429.006 466.315 425.177 476.249 418.102 482.185C411.028 488.121 400.58 490.167 386.969 487.917C373.376 485.67 357.172 479.205 339.367 468.899C303.789 448.304 262.601 412.826 224.383 367.279C186.165 321.733 158.378 275.01 144.274 236.396C137.217 217.073 133.663 199.992 133.811 186.215C133.958 172.42 137.788 162.486 144.862 156.55C151.937 150.614 162.384 148.568 175.995 150.818C189.588 153.065 205.793 159.53 223.597 169.836C259.175 190.431 300.363 225.909 338.581 271.456Z" stroke="#E535AB" stroke-width="8"/>
<circle cx="468.664" cy="21.9396" r="14.0136" transform="rotate(-135 468.664 21.9396)" stroke="#E535AB" stroke-width="3"/>
<circle cx="548.664" cy="101.94" r="14.0136" transform="rotate(-135 548.664 101.94)" stroke="#E535AB" stroke-width="3"/>
<circle cx="469.997" cy="102.099" r="31.0272" transform="rotate(-135 469.997 102.099)" fill="#E535AB"/>
<line x1="500.1" y1="101.339" x2="535.005" y2="101.339" stroke="#E535AB" stroke-width="3"/>
<line x1="467.383" y1="34.5403" x2="466.694" y2="71.839" stroke="#E535AB" stroke-width="3"/>
<circle cx="114.338" cy="615.613" r="14.0136" transform="rotate(35.097 114.338 615.613)" stroke="#E535AB" stroke-width="3"/>
<path d="M33.3835 558.075C28.9335 564.407 20.1928 565.933 13.8605 561.483C7.5282 557.033 6.00223 548.293 10.4522 541.96C14.9021 535.628 23.6428 534.102 29.9751 538.552C36.3074 543.002 37.8334 551.743 33.3835 558.075Z" stroke="#E535AB" stroke-width="3"/>
<circle cx="98.9819" cy="536.812" r="31.0272" transform="rotate(35.097 98.9819 536.812)" fill="#E535AB"/>
<line x1="69.4583" y1="542.738" x2="35.0727" y2="548.741" stroke="#E535AB" stroke-width="3"/>
<line x1="113.176" y1="602.914" x2="107.44" y2="566.053" stroke="#E535AB" stroke-width="3"/>
<path d="M53.5962 156.273C48.6214 150.344 49.3947 141.505 55.3235 136.53C61.2523 131.555 70.0915 132.328 75.0663 138.257C80.0412 144.186 79.2679 153.025 73.3391 158C67.4103 162.975 58.5711 162.201 53.5962 156.273Z" stroke="#E535AB" stroke-width="3"/>
<circle cx="150.581" cy="74.8561" r="14.0136" transform="rotate(140 150.581 74.8561)" stroke="#E535AB" stroke-width="3"/>
<circle cx="144.225" cy="152.711" r="31.0272" transform="rotate(140 144.225 152.711)" fill="#E535AB"/>
<line x1="146.091" y1="122.656" x2="149.133" y2="87.8834" stroke="#E535AB" stroke-width="3"/>
<line x1="76.6955" y1="149.427" x2="113.792" y2="153.364" stroke="#E535AB" stroke-width="3"/>
<circle cx="500.581" cy="492.856" r="14.0136" transform="rotate(-40 500.581 492.856)" stroke="#E535AB" stroke-width="3"/>
<circle cx="414.581" cy="565.856" r="14.0136" transform="rotate(-40 414.581 565.856)" stroke="#E535AB" stroke-width="3"/>
<circle cx="420.325" cy="486.878" r="31.0272" transform="rotate(-40 420.325 486.878)" fill="#E535AB"/>
<line x1="418.459" y1="516.932" x2="415.417" y2="551.705" stroke="#E535AB" stroke-width="3"/>
<line x1="487.855" y1="490.162" x2="450.758" y2="486.225" stroke="#E535AB" stroke-width="3"/>
<path d="M287.316 273.488L318.344 325.847H256.289L287.316 273.488Z" fill="#E535AB"/>
<path d="M287.316 345.239L256.289 325.847H318.344L287.316 345.239Z" fill="#E535AB"/>
<path d="M287.316 377.236L256.289 332.634L287.316 352.026L318.344 332.634L287.316 377.236Z" fill="#E535AB"/>
</svg>
